<svg width="100" height="26" viewBox="0 0 100 26" fill="none" xmlns="http://www.w3.org/2000/svg">
<path d="M43.3106 6.54601V18.3236C43.3106 20.9174 42.6319 22.8453 41.2745 24.1072C39.9171 25.3691 37.9338 26 35.3248 26C33.9498 26 32.6452 25.8335 31.4112 25.5005C30.1772 25.1675 29.1548 24.6855 28.3438 24.0546L29.9833 21.1102C30.5827 21.6009 31.3407 21.9865 32.2574 22.2669C33.1741 22.5649 34.0908 22.7139 35.0075 22.7139C36.4354 22.7139 37.4843 22.3896 38.1542 21.7412C38.8417 21.1102 39.1855 20.1463 39.1855 18.8493V18.2447C38.1101 19.4189 36.6117 20.0061 34.6902 20.0061C33.3856 20.0061 32.1869 19.7257 31.0939 19.1648C30.0186 18.5865 29.1636 17.7802 28.5289 16.7462C27.8943 15.7122 27.577 14.5204 27.577 13.1709C27.577 11.8214 27.8943 10.6296 28.5289 9.59555C29.1636 8.56151 30.0186 7.76407 31.0939 7.20324C32.1869 6.62487 33.3856 6.33569 34.6902 6.33569C36.7527 6.33569 38.3217 7.01045 39.397 8.35996V6.54601H43.3106ZM35.5099 16.641C36.6029 16.641 37.4931 16.3256 38.1806 15.6946C38.8858 15.0462 39.2384 14.2049 39.2384 13.1709C39.2384 12.1368 38.8858 11.3043 38.1806 10.6734C37.4931 10.0249 36.6029 9.70071 35.5099 9.70071C34.4169 9.70071 33.5179 10.0249 32.8127 10.6734C32.1076 11.3043 31.755 12.1368 31.755 13.1709C31.755 14.2049 32.1076 15.0462 32.8127 15.6946C33.5179 16.3256 34.4169 16.641 35.5099 16.641Z" fill="#FF862E"/>
<path d="M47.2822 6.54601H51.4073V20.6896H47.2822V6.54601ZM49.3447 4.57432C48.5867 4.57432 47.9697 4.35524 47.4937 3.91709C47.0178 3.47894 46.7798 2.93563 46.7798 2.28716C46.7798 1.63869 47.0178 1.09538 47.4937 0.65723C47.9697 0.219077 48.5867 0 49.3447 0C50.1028 0 50.7198 0.210314 51.1958 0.630942C51.6717 1.05157 51.9097 1.57735 51.9097 2.20829C51.9097 2.89181 51.6717 3.46141 51.1958 3.91709C50.7198 4.35524 50.1028 4.57432 49.3447 4.57432Z" fill="#FF862E"/>
<path d="M59.3873 6.86148H63.0364V10.0162H59.4931V20.6896H55.368V6.23054C55.368 4.61813 55.8439 3.33873 56.7959 2.39232C57.7655 1.4459 59.1229 0.9727 60.8681 0.9727C61.4851 0.9727 62.0669 1.0428 62.6133 1.18301C63.1775 1.3057 63.6446 1.48972 64.0148 1.73509L62.9307 4.70576C62.4547 4.37277 61.8994 4.20627 61.2647 4.20627C60.0131 4.20627 59.3873 4.88979 59.3873 6.25683V6.86148Z" fill="#FF862E"/>
<path d="M73.8031 20.0061C73.3976 20.304 72.8952 20.5318 72.2958 20.6896C71.7141 20.8298 71.1059 20.8999 70.4712 20.8999C68.7613 20.8999 67.4479 20.4705 66.5312 19.6117C65.6145 18.753 65.1562 17.4911 65.1562 15.8261V3.41759H69.2813V6.86148H72.7982V10.0162H69.2813V15.7735C69.2813 16.3694 69.4312 16.8338 69.7308 17.1668C70.0305 17.4823 70.4624 17.64 71.0265 17.64C71.6612 17.64 72.2253 17.4648 72.7189 17.1143L73.8031 20.0061Z" fill="#FF862E"/>
<path d="M81.3686 20.8999C79.7644 20.8999 78.5128 20.4793 77.6137 19.638C76.7147 18.7792 76.2651 17.5699 76.2651 16.0101V1.18301H80.3903V15.7735C80.3903 16.3694 80.5401 16.8338 80.8398 17.1668C81.1571 17.4823 81.5978 17.64 82.1619 17.64C82.3735 17.64 82.585 17.6138 82.7966 17.5612C83.0257 17.5086 83.202 17.4473 83.3254 17.3771L83.5105 20.5581C82.823 20.786 82.109 20.8999 81.3686 20.8999Z" fill="#FF862E"/>
<path d="M100 6.54601V18.3236C100 20.9174 99.3389 22.8453 98.0168 24.1072C96.6946 25.3691 94.7731 26 92.2522 26C90.9124 26 89.6432 25.8335 88.4444 25.5005C87.2633 25.1675 86.2673 24.6855 85.4564 24.0546L87.0958 21.1102C87.6952 21.6009 88.4268 21.9865 89.2906 22.2669C90.1544 22.5474 91.027 22.6876 91.9084 22.6876C93.2835 22.6876 94.2883 22.3721 94.9229 21.7412C95.5576 21.1102 95.8749 20.1463 95.8749 18.8493V18.3761C95.346 18.9019 94.7202 19.305 93.9974 19.5854C93.2747 19.8659 92.499 20.0061 91.6705 20.0061C89.8018 20.0061 88.321 19.4803 87.228 18.4287C86.1351 17.3596 85.5886 15.7647 85.5886 13.6441V6.54601H89.7137V13.0394C89.7137 15.3354 90.6744 16.4833 92.596 16.4833C93.5832 16.4833 94.3765 16.1678 94.9758 15.5369C95.5752 14.8884 95.8749 13.9333 95.8749 12.6714V6.54601H100Z" fill="#FF862E"/>
<path d="M5.13288 1.73617C3.82518 1.53526 2.60169 2.42924 2.40016 3.73293L1.47603 9.71103C1.44228 9.92937 1.59246 10.1336 1.81147 10.1673L10.0161 11.4278C10.2351 11.4614 10.44 11.3117 10.4738 11.0934L11.7017 3.15009C11.7354 2.93175 11.5852 2.72748 11.3662 2.69383L5.13288 1.73617Z" fill="#FF862E"/>
<path d="M14.5272 3.17946C14.3082 3.14581 14.1033 3.29553 14.0695 3.51387L12.8416 11.4572C12.8078 11.6755 12.958 11.8798 13.177 11.9134L21.1449 13.1376C21.3639 13.1712 21.5688 13.0215 21.6025 12.8032L22.5267 6.82505C22.7282 5.52136 21.8314 4.30164 20.5237 4.10074L14.5272 3.17946Z" fill="#FF862E"/>
<path d="M21.1154 15.9544C21.1492 15.736 20.999 15.5317 20.78 15.4981L12.8121 14.274C12.5931 14.2403 12.3882 14.39 12.3545 14.6084L11.0901 22.7877C11.0563 23.0061 11.2065 23.2103 11.4255 23.244L17.4221 24.1653C18.7298 24.3662 19.9533 23.4722 20.1548 22.1685L21.1154 15.9544Z" fill="#FF862E"/>
<path d="M8.26456 22.7584C8.48358 22.792 8.68848 22.6423 8.72223 22.424L9.98664 14.2446C10.0204 14.0263 9.87021 13.822 9.65119 13.7883L1.44657 12.5278C1.22756 12.4942 1.02266 12.6439 0.988905 12.8622L0.0282901 19.0764C-0.173239 20.3801 0.723503 21.5998 2.03121 21.8007L8.26456 22.7584Z" fill="#FF862E"/>
</svg>
